<?xml version="1.0" standalone="no"?><!DOCTYPE svg PUBLIC "-//W3C//DTD SVG 1.1//EN" "http://www.w3.org/Graphics/SVG/1.1/DTD/svg11.dtd"><svg t="1712209992429" class="icon" viewBox="0 0 1024 1024" version="1.1" xmlns="http://www.w3.org/2000/svg" p-id="1497" xmlns:xlink="http://www.w3.org/1999/xlink" width="200" height="200"><path d="M512 972.8c254.498133 0 460.8-206.301867 460.8-460.8S766.498133 51.2 512 51.2 51.2 257.501867 51.2 512s206.301867 460.8 460.8 460.8z m0-68.266667C295.202133 904.533333 119.466667 728.797867 119.466667 512S295.202133 119.466667 512 119.466667s392.533333 175.735467 392.533333 392.533333-175.735467 392.533333-392.533333 392.533333z" fill="#000000" p-id="1498"></path><path d="M374.016 597.333333a34.133333 34.133333 0 1 0 49.271467 47.274667l104.516266-108.987733A34.133333 34.133333 0 0 0 537.2928 512V266.410667a34.133333 34.133333 0 1 0-68.266667 0v231.867733l-95.010133 99.072z" fill="#000000" p-id="1499"></path></svg>