<?xml version="1.0" standalone="no"?><!DOCTYPE svg PUBLIC "-//W3C//DTD SVG 1.1//EN" "http://www.w3.org/Graphics/SVG/1.1/DTD/svg11.dtd"><svg t="1677661519956" class="icon" viewBox="0 0 1024 1024" version="1.1" xmlns="http://www.w3.org/2000/svg" p-id="3231" xmlns:xlink="http://www.w3.org/1999/xlink" width="200" height="200"><path d="M672 848v56c0 4.4-3.6 8-8 8H120c-4.4 0-8-3.6-8-8v-56c0-4.4 3.6-8 8-8h544c4.4 0 8 3.6 8 8zM529.7 236.2c16.7 5.8 25.6 24 19.8 40.7L487 458.4l446.3 153.7c4.2 1.4 6.4 6 5 10.2L920 675.2c-1.4 4.2-6 6.4-10.2 5L463.5 526.5 401 708c-5.8 16.7-24 25.6-40.7 19.8L80.4 631.4c-16.7-5.8-25.6-24-19.8-40.7l148.5-431.2c5.8-16.7 24-25.6 40.7-19.8l279.9 96.5z m-61.3 55.1L264.2 221 141.8 576.5 346 646.8l122.4-355.5z" p-id="3232" fill="#2c2c2c"></path></svg>