<?xml version="1.0" standalone="no"?><!DOCTYPE svg PUBLIC "-//W3C//DTD SVG 1.1//EN" "http://www.w3.org/Graphics/SVG/1.1/DTD/svg11.dtd"><svg t="1677659055169" class="icon" viewBox="0 0 1024 1024" version="1.1" xmlns="http://www.w3.org/2000/svg" p-id="4308" xmlns:xlink="http://www.w3.org/1999/xlink" width="200" height="200"><path d="M637.155556 521.481481h-265.481482c-15.17037 0-28.444444-13.274074-28.444444-28.444444s13.274074-28.444444 28.444444-28.444444h267.377778c15.17037 0 28.444444 13.274074 28.444444 28.444444s-13.274074 28.444444-30.34074 28.444444z" fill="#2c2c2c" p-id="4309"></path><path d="M504.414815 493.037037c-7.585185 0-17.066667-3.792593-20.859259-9.481481l-91.022223-108.088889c-9.481481-11.377778-9.481481-30.340741 3.792593-39.822223s30.340741-9.481481 39.822222 3.792593l70.162963 83.437037 70.162963-83.437037c9.481481-11.377778 28.444444-13.274074 39.822222-3.792593 11.377778 9.481481 13.274074 28.444444 3.792593 39.822223l-91.022222 108.088889c-7.585185 7.585185-17.066667 9.481481-24.651852 9.481481zM637.155556 625.777778h-265.481482c-15.17037 0-28.444444-13.274074-28.444444-28.444445s13.274074-28.444444 28.444444-28.444444h267.377778c15.17037 0 28.444444 13.274074 28.444444 28.444444s-13.274074 28.444444-30.34074 28.444445z" fill="#2c2c2c" p-id="4310"></path><path d="M504.414815 745.244444c-15.17037 0-28.444444-13.274074-28.444445-28.444444V464.592593c0-15.17037 13.274074-28.444444 28.444445-28.444445s28.444444 13.274074 28.444444 28.444445v250.311111c0 15.17037-13.274074 30.340741-28.444444 30.34074z" fill="#2c2c2c" p-id="4311"></path><path d="M883.674074 925.392593h-758.518518c-41.718519 0-75.851852-34.133333-75.851852-75.851852v-117.570371c0-41.718519 5.688889-54.992593 15.17037-64.474074 7.585185-7.585185 17.066667-11.377778 26.548148-11.377777h1.896297c70.162963 0 94.814815-60.681481 94.814814-119.466667 0-56.888889-24.651852-119.466667-94.814814-119.466667h-1.896297c-9.481481 0-18.962963-3.792593-26.548148-9.481481-11.377778-9.481481-15.17037-22.755556-15.17037-64.474074v-117.570371c0-41.718519 34.133333-75.851852 75.851852-75.851852h758.518518c41.718519 0 75.851852 34.133333 75.851852 75.851852v117.570371c0 34.133333-22.755556 72.059259-53.096296 89.125926-1.896296 0-79.644444 43.614815-79.644445 106.192592s77.748148 104.296296 77.748148 104.296296c30.340741 17.066667 53.096296 54.992593 53.096297 89.125926v117.570371c1.896296 41.718519-32.237037 75.851852-73.955556 75.851852z m-758.518518-199.111112v119.466667h758.518518v-117.57037c0-7.585185-7.585185-18.962963-13.274074-22.755556-5.688889-1.896296-119.466667-64.474074-119.466667-172.562963s113.777778-170.666667 119.466667-172.562963c5.688889-3.792593 13.274074-15.17037 13.274074-22.755555v-117.570371h-758.518518v119.466667c83.437037 15.17037 138.42963 89.125926 138.429629 191.525926 0 108.088889-54.992593 183.940741-138.429629 195.318518z" fill="#2c2c2c" p-id="4312"></path></svg>