<?xml version="1.0" standalone="no"?><!DOCTYPE svg PUBLIC "-//W3C//DTD SVG 1.1//EN" "http://www.w3.org/Graphics/SVG/1.1/DTD/svg11.dtd"><svg t="1702277588063" class="icon" viewBox="0 0 1024 1024" version="1.1" xmlns="http://www.w3.org/2000/svg" p-id="1396" xmlns:xlink="http://www.w3.org/1999/xlink" width="200" height="200"><path d="M852.39999969 952.04H171.60000031a19.99999969 19.99999969 0 0 1-19.68-23.59999969l159.99999938-880.00000031a20.04 20.04 0 0 1 19.68-16.39999969h360c9.64000031 0 17.92000031 6.91999969 19.68 16.44l159.04000031 874.63999969a19.99999969 19.99999969 0 0 1-17.92000031 28.92z m-656.83999969-40.00000031h632.11999969l-152.71999969-840H348.27999969l-152.71999969 840z" fill="#000000" p-id="1397"></path><path d="M791.6 632.04000031h-559.99999969a19.99999969 19.99999969 0 0 1 0-40.00000031h559.99999969a19.99999969 19.99999969 0 0 1 0 40.00000031zM702.32 240.72000031a19.99999969 19.99999969 0 0 1-17.59999969-29.48000062l69.27999938-128.67999938a19.99999969 19.99999969 0 1 1 35.24000062 18.91999969l-69.28000031 128.68000031a19.99999969 19.99999969 0 0 1-17.64 10.56z" fill="#000000" p-id="1398"></path><path d="M491.6 632.04000031a19.99999969 19.99999969 0 0 1-17.59999969-29.48000062l150.79999969-279.99999938a19.99999969 19.99999969 0 1 1 35.23999969 18.91999969l-150.79999969 280.00000031a20.08000031 20.08000031 0 0 1-17.64 10.56z" fill="#000000" p-id="1399"></path><path d="M671.6 352.04c-44.11999969 0-79.99999969-35.88-79.99999969-79.99999969s35.88-79.99999969 79.99999969-80.00000062 79.99999969 35.88 79.99999969 80.00000062-35.88 79.99999969-79.99999969 79.99999969z m0-120a40.03999969 40.03999969 0 0 0 0 79.99999969 40.03999969 40.03999969 0 0 0 0-79.99999969zM451.59999969 632.04000031a19.99999969 19.99999969 0 0 1-19.99999969-20.00000062v-559.99999969a19.99999969 19.99999969 0 0 1 40.00000031 0v559.99999969a19.99999969 19.99999969 0 0 1-20.00000062 20.00000062zM571.59999969 392.04000031a19.99999969 19.99999969 0 0 1-19.99999969-20.00000062v-319.99999969a19.99999969 19.99999969 0 0 1 40.00000031 0v319.99999969a19.99999969 19.99999969 0 0 1-20.00000062 20.00000062zM571.59999969 792.03999969h-120a19.99999969 19.99999969 0 0 1 0-39.99999938h120a19.99999969 19.99999969 0 0 1 0 39.99999938zM211.59999969 992.04000031a19.99999969 19.99999969 0 0 1-19.99999969-20.00000062v-39.99999938a19.99999969 19.99999969 0 0 1 40.00000031 0v39.99999938a19.99999969 19.99999969 0 0 1-20.00000062 20.00000062zM811.59999969 992.04000031a19.99999969 19.99999969 0 0 1-19.99999969-20.00000062v-39.99999938a19.99999969 19.99999969 0 0 1 40.00000031 0v39.99999938a19.99999969 19.99999969 0 0 1-20.00000062 20.00000062zM571.59999969 632.04000031a19.99999969 19.99999969 0 0 1-19.99999969-20.00000062v-39.99999938a19.99999969 19.99999969 0 0 1 40.00000031 0v39.99999938a19.99999969 19.99999969 0 0 1-20.00000062 20.00000062z" fill="#000000" p-id="1400"></path></svg>