<svg viewBox="0 0 1024 1024" xmlns="http://www.w3.org/2000/svg" width="200" height="200"><path d="M512 972.8c254.498133 0 460.8-206.301867 460.8-460.8S766.498133 51.2 512 51.2 51.2 257.501867 51.2 512s206.301867 460.8 460.8 460.8z m0-68.266667C295.202133 904.533333 119.466667 728.797867 119.466667 512S295.202133 119.466667 512 119.466667s392.533333 175.735467 392.533333 392.533333-175.735467 392.533333-392.533333 392.533333z" fill="#000000"/><path d="M512 256a34.133333 34.133333 0 0 0-34.133333 34.133333v187.733334a34.133333 34.133333 0 0 0 68.266666 0V290.133333A34.133333 34.133333 0 0 0 512 256z" fill="#000000"/><path d="M648.533333 546.133333l-102.4-102.4a34.133333 34.133333 0 1 0-48.298666 48.298667l102.4 102.4a34.133333 34.133333 0 0 0 48.298666-48.298667z" fill="#000000"/></svg>
