<svg viewBox="0 0 1024 1024" xmlns="http://www.w3.org/2000/svg" width="200" height="200"><path d="M512 119.466667c-216.797867 0-392.533333 175.735467-392.533333 392.533333S295.202133 904.533333 512 904.533333s392.533333-175.735467 392.533333-392.533333S728.797867 119.466667 512 119.466667z m0 68.266666c179.029333 0 324.266667 145.237333 324.266667 324.266667S691.029333 836.266667 512 836.266667 187.733333 691.029333 187.733333 512 332.970667 187.733333 512 187.733333z" fill="#000000"/><path d="M256 512h256a34.133333 34.133333 0 0 0 0-68.266667H256a34.133333 34.133333 0 0 0 0 68.266667z" fill="#000000"/><path d="M358.4 358.4a34.133333 34.133333 0 0 0-48.298667 48.298667l68.266667 68.266666a34.133333 34.133333 0 0 0 48.298667-48.298666l-68.266667-68.266667z" fill="#000000"/></svg>
