<svg xmlns="http://www.w3.org/2000/svg" viewBox="0 0 1024 1024"><path fill="#1A1A1A" d="m267.95 702.98 137.21 123.73a25.6 25.6 0 0 1 1.88 36.18l-34.3 37.97a25.6 25.6 0 0 1-36.19 1.88L122.28 708.95a25.6 25.6 0 0 1-8.45-19.03v-63.74a25.6 25.6 0 0 1 25.6-25.6h773.72a25.6 25.6 0 0 1 25.6 25.6v51.2a25.6 25.6 0 0 1-25.6 25.6zm670.38-324.01a25.6 25.6 0 0 1-25.6 25.6H139.09a25.6 25.6 0 0 1-25.6-25.6v-51.2a25.6 25.6 0 0 1 25.6-25.6h645.12L647 178.43a25.6 25.6 0 0 1-1.88-36.09l34.39-38.15a25.6 25.6 0 0 1 36.1-1.88l214.18 192.26a25.6 25.6 0 0 1 8.54 19.03z"/></svg>