<svg xmlns="http://www.w3.org/2000/svg" viewBox="0 0 1024 1024"><path fill="#1a1a1a" d="M85.33 138.67V96c0-5.97 4.69-10.67 10.67-10.67h832c5.97 0 10.67 4.69 10.67 10.67v42.67c0 5.97-4.69 10.67-10.67 10.66H96c-5.97 0-10.67-4.69-10.67-10.66m0 394.66v-42.66C85.33 484.7 90.02 480 96 480h832c5.97 0 10.67 4.69 10.67 10.67v42.66c0 5.97-4.69 10.67-10.67 10.67H96c-5.97 0-10.67-4.69-10.67-10.67M928 874.67c5.97 0 10.67 4.69 10.67 10.66V928c0 5.97-4.69 10.67-10.67 10.67H96c-5.97 0-10.67-4.69-10.67-10.67v-42.67c0-5.97 4.69-10.67 10.67-10.66z"/></svg>