<svg xmlns="http://www.w3.org/2000/svg" viewBox="0 0 48 48"><path d="M15.5 0a.5.5 0 0 0-.5.5v2a.5.5 0 0 0 .5.5h17a.5.5 0 0 0 .5-.5v-2a.5.5 0 0 0-.5-.5zM48 7.5a.5.5 0 0 0-.5-.5H.5a.5.5 0 0 0-.5.5v2a.5.5 0 0 0 .5.5h3.824l2.904 26.86A8 8 0 0 0 15.182 44h17.636a7.999 7.999 0 0 0 7.953-7.14L43.676 10H47.5a.5.5 0 0 0 .5-.5zM10.21 36.537 7.343 10h33.316l-2.87 26.537A4.999 4.999 0 0 1 32.819 41H15.182a5 5 0 0 1-4.971-4.463M18.5 19a.5.5 0 0 0-.5.5v11a.5.5 0 0 0 .5.5h2a.5.5 0 0 0 .5-.5v-11a.5.5 0 0 0-.5-.5zm11.5.5v11a.5.5 0 0 1-.5.5h-2a.5.5 0 0 1-.5-.5v-11a.5.5 0 0 1 .5-.5h2a.5.5 0 0 1 .5.5"/></svg>