<svg xmlns="http://www.w3.org/2000/svg" viewBox="0 0 48 48"><path d="M22.097 2.762A14.384 14.384 0 0 1 24 4.502a14.384 14.384 0 0 1 1.903-1.74C28.189 1.022 30.983 0 34 0c7.732 0 14 6.716 14 15 0 13.255-12.745 22-24 28C12.745 37 0 28.255 0 15 0 6.716 6.268 0 14 0c3.017 0 5.811 1.023 8.097 2.762M24 39.589c5.091-2.796 10.186-6.077 14.1-9.99C42.346 25.352 45 20.57 45 15c0-6.826-5.117-12-11-12-3.007 0-5.766 1.318-7.786 3.527L24 8.947l-2.214-2.42C19.766 4.317 17.006 3 14 3 8.116 3 3 8.174 3 15c0 5.57 2.653 10.352 6.9 14.6 3.914 3.912 9.009 7.193 14.1 9.99"/></svg>