<svg xmlns="http://www.w3.org/2000/svg" viewBox="0 0 1024 1024"><path fill="#1A1A1A" d="M256 469.33c117.82 0 213.33-95.51 213.33-213.33S373.82 42.67 256 42.67 42.67 138.18 42.67 256 138.18 469.33 256 469.33m0-85.33a128 128 0 1 1 0-256 128 128 0 0 1 0 256m298.67-213.33A42.67 42.67 0 0 1 597.33 128h341.34a42.67 42.67 0 1 1 0 85.33H597.33a42.67 42.67 0 0 1-42.66-42.66m42.66 128a42.67 42.67 0 1 0 0 85.33h341.34a42.67 42.67 0 1 0 0-85.33zm0 341.33a42.67 42.67 0 1 0 0 85.33h341.34a42.67 42.67 0 1 0 0-85.33zm0 170.67h341.34a42.67 42.67 0 1 1 0 85.33H597.33a42.67 42.67 0 1 1 0-85.33m-128-42.67c0 117.82-95.51 213.33-213.33 213.33S42.67 885.82 42.67 768 138.18 554.67 256 554.67 469.33 650.18 469.33 768M384 768a128 128 0 1 0-256 0 128 128 0 0 0 256 0"/></svg>