<svg xmlns="http://www.w3.org/2000/svg" viewBox="0 0 1024 1024"><path fill="undefined" d="M512 73.14a43.89 43.89 0 0 1 43.89 43.89v118.49a43.89 43.89 0 0 1-87.78 0V117.03A43.89 43.89 0 0 1 512 73.14M201.65 201.65a43.89 43.89 0 0 1 62.1 0l83.68 83.83a43.89 43.89 0 1 1-62.03 62.02l-83.75-83.75a43.89 43.89 0 0 1 0-62.1m620.7 0a43.89 43.89 0 0 1 0 62.1l-83.83 83.68a43.89 43.89 0 1 1-62.02-62.03l83.75-83.82a43.89 43.89 0 0 1 62.1 0zM73.14 512a43.89 43.89 0 0 1 43.89-43.89h118.49a43.89 43.89 0 0 1 0 87.78H117.03A43.89 43.89 0 0 1 73.14 512m671.45 0a43.89 43.89 0 0 1 43.89-43.89h118.49a43.89 43.89 0 1 1 0 87.78H788.48A43.89 43.89 0 0 1 744.59 512M347.5 676.5a43.89 43.89 0 0 1 0 62.02l-83.75 83.83a43.89 43.89 0 1 1-62.1-62.1l83.83-83.68a43.89 43.89 0 0 1 62.02 0zm329 0a43.89 43.89 0 0 1 62.02 0l83.83 83.75a43.89 43.89 0 1 1-62.1 62.1l-83.68-83.83a43.89 43.89 0 0 1 0-62.02zM512 744.59a43.89 43.89 0 0 1 43.89 43.89v118.49a43.89 43.89 0 1 1-87.78 0V788.48A43.89 43.89 0 0 1 512 744.59"/></svg>