<svg xmlns="http://www.w3.org/2000/svg" viewBox="0 0 1024 1024"><path fill="#1A1A1A" d="M512 0C394.18 0 298.67 95.51 298.67 213.33v341.34C298.67 672.49 394.18 768 512 768s213.33-95.51 213.33-213.33V213.33C725.33 95.51 629.82 0 512 0m128 554.67a128 128 0 0 1-256 0V213.33a128 128 0 0 1 256 0z"/><path fill="#1A1A1A" d="M170.67 512a42.67 42.67 0 0 1 42.66 42.67c0 164.95 133.72 298.67 298.67 298.66s298.67-133.72 298.67-298.66a42.67 42.67 0 1 1 85.33 0c0 197.65-149.33 360.43-341.33 381.65v45.01a42.67 42.67 0 1 1-85.34 0v-45.01c-192-21.23-341.33-184-341.33-381.65A42.67 42.67 0 0 1 170.67 512"/></svg>