<svg xmlns="http://www.w3.org/2000/svg" viewBox="0 0 1024 1024"><path fill="#1A1A1A" d="M451.65 576 313.3 714.35l60.35 60.35L512 636.33 650.35 774.7l60.33-60.35L572.33 576 710.7 437.65l-60.35-60.35L512 515.67 373.65 377.3l-60.35 60.35z"/><path fill="#1A1A1A" d="M384 0a128.06 128.06 0 0 0-120.73 85.33h-92.6a128 128 0 0 0-128 128V896a128 128 0 0 0 128 128h682.66a128 128 0 0 0 128-128V213.33a128 128 0 0 0-128-128h-92.6A128.06 128.06 0 0 0 640 0zm256 85.33a42.67 42.67 0 1 1 0 85.34H384a42.67 42.67 0 1 1 0-85.34zm-469.33 85.34h92.6C280.85 220.38 328.27 256 384 256h256a128.06 128.06 0 0 0 120.73-85.33h92.6A42.67 42.67 0 0 1 896 213.33V896a42.67 42.67 0 0 1-42.67 42.67H170.67A42.67 42.67 0 0 1 128 896V213.33a42.67 42.67 0 0 1 42.67-42.66"/></svg>