<svg xmlns="http://www.w3.org/2000/svg" viewBox="0 0 1024 1024"><path fill="#1A1A1A" d="M768 533.33A85.33 85.33 0 1 1 768 704a85.33 85.33 0 0 1 0-170.67"/><path fill="#1A1A1A" d="M1024 384a128 128 0 0 0-128-128v-85.33a128 128 0 0 0-128-128H128a128 128 0 0 0-128 128v682.66a128 128 0 0 0 128 128h768a128 128 0 0 0 128-128zM128 128h640a42.67 42.67 0 0 1 42.67 42.67V256H128a42.67 42.67 0 0 1-42.67-42.67v-42.66A42.67 42.67 0 0 1 128 128M85.33 334.06a127.79 127.79 0 0 0 42.67 7.27h768A42.67 42.67 0 0 1 938.67 384v469.33A42.67 42.67 0 0 1 896 896H128a42.67 42.67 0 0 1-42.67-42.67z"/></svg>